<?xml version="1.0" standalone="no"?><!DOCTYPE svg PUBLIC "-//W3C//DTD SVG 1.1//EN" "http://www.w3.org/Graphics/SVG/1.1/DTD/svg11.dtd"><svg t="1709385545136" class="icon" viewBox="0 0 1024 1024" version="1.1" xmlns="http://www.w3.org/2000/svg" p-id="4435" xmlns:xlink="http://www.w3.org/1999/xlink" width="200" height="200"><path d="M0 0h1024v1024H0V0z" fill="#202425" opacity=".01" p-id="4436"></path><path d="M716.8 443.733333a238.933333 238.933333 0 0 1 238.933333 238.933334v204.8a68.266667 68.266667 0 0 1-68.266666 68.266666H546.133333a68.266667 68.266667 0 0 1-68.266666-68.266666v-204.8a238.933333 238.933333 0 0 1 238.933333-238.933334z m0-375.466666a170.666667 170.666667 0 1 1 0 341.333333 170.666667 170.666667 0 0 1 0-341.333333z" fill="#FFAA44" p-id="4437"></path><path d="M307.2 443.733333a238.933333 238.933333 0 0 1 238.933333 238.933334v204.8a68.266667 68.266667 0 0 1-68.266666 68.266666H136.533333a68.266667 68.266667 0 0 1-68.266666-68.266666v-204.8a238.933333 238.933333 0 0 1 238.933333-238.933334zM307.2 68.266667a170.666667 170.666667 0 1 1 0 341.333333A170.666667 170.666667 0 0 1 307.2 68.266667z" fill="#FF7744" p-id="4438"></path></svg>