<?xml version="1.0" standalone="no"?><!DOCTYPE svg PUBLIC "-//W3C//DTD SVG 1.1//EN" "http://www.w3.org/Graphics/SVG/1.1/DTD/svg11.dtd"><svg t="1709385602996" class="icon" viewBox="0 0 1024 1024" version="1.1" xmlns="http://www.w3.org/2000/svg" p-id="4823" xmlns:xlink="http://www.w3.org/1999/xlink" width="200" height="200"><path d="M0 0h1024v1024H0V0z" fill="#202425" opacity=".01" p-id="4824"></path><path d="M68.266667 170.666667a136.533333 136.533333 0 0 1 136.533333-136.533334h614.4a136.533333 136.533333 0 0 1 136.533333 136.533334v696.32a54.613333 54.613333 0 0 1-54.613333 54.613333 13.653333 13.653333 0 0 0-13.653333 13.653333 54.613333 54.613333 0 0 1-54.613334 54.613334H204.8a136.533333 136.533333 0 0 1-136.533333-136.533334V170.666667z" fill="#FF7744" p-id="4825"></path><path d="M887.466667 204.8a102.4 102.4 0 0 0-102.4-102.4H204.8a68.266667 68.266667 0 1 0 0 136.533333h512a102.4 102.4 0 0 1 102.4 102.4v648.533334a68.266667 68.266667 0 0 0 68.266667-68.266667V204.8z" fill="#FFAA44" p-id="4826"></path><path d="M273.066667 341.333333a34.133333 34.133333 0 0 1 34.133333-34.133333h136.533333a34.133333 34.133333 0 0 1 34.133334 34.133333v275.319467a17.066667 17.066667 0 0 1-26.5216 14.199467l-56.9344-37.956267a34.133333 34.133333 0 0 0-37.888 0l-56.9344 37.956267A17.066667 17.066667 0 0 1 273.066667 616.6528V341.333333z" fill="#FFFFFF" p-id="4827"></path></svg>