<?xml version="1.0" standalone="no"?><!DOCTYPE svg PUBLIC "-//W3C//DTD SVG 1.1//EN" "http://www.w3.org/Graphics/SVG/1.1/DTD/svg11.dtd"><svg t="1713724133173" class="icon" viewBox="0 0 1024 1024" version="1.1" xmlns="http://www.w3.org/2000/svg" p-id="3971" xmlns:xlink="http://www.w3.org/1999/xlink" width="200" height="200"><path d="M0 0h1024v1024H0V0z" fill="#202425" opacity=".01" p-id="3972"></path><path d="M34.133333 477.866667a68.266667 68.266667 0 0 1 68.266667-68.266667h819.2a68.266667 68.266667 0 0 1 68.266667 68.266667v341.333333a136.533333 136.533333 0 0 1-136.533334 136.533333H170.666667a136.533333 136.533333 0 0 1-136.533334-136.533333V477.866667z" fill="#FF7744" p-id="3973"></path><path d="M102.4 204.8a136.533333 136.533333 0 0 1 136.533333-136.533333h546.133334a136.533333 136.533333 0 0 1 136.533333 136.533333v375.466667a34.133333 34.133333 0 0 1-34.133333 34.133333h-145.066667a25.6 25.6 0 0 0-25.6 25.6 25.6 25.6 0 0 1-25.6 25.6H332.8a25.6 25.6 0 0 1-25.6-25.6 25.6 25.6 0 0 0-25.6-25.6H136.533333a34.133333 34.133333 0 0 1-34.133333-34.133333V204.8z" fill="#FFAA44" p-id="3974"></path><path d="M256 238.933333A51.2 51.2 0 0 1 307.2 187.733333h409.6a51.2 51.2 0 0 1 0 102.4H307.2A51.2 51.2 0 0 1 256 238.933333z m0 192.750934a51.2 51.2 0 0 1 51.2-51.2h409.6a51.2 51.2 0 1 1 0 102.4H307.2a51.2 51.2 0 0 1-51.2-51.2zM324.266667 785.066667a51.2 51.2 0 0 1 51.2-51.2h273.066666a51.2 51.2 0 0 1 0 102.4h-273.066666A51.2 51.2 0 0 1 324.266667 785.066667z" fill="#FFFFFF" p-id="3975"></path></svg>